# xmcd
#
# Track frame offsets: 
#        150
#        18000
#        33526
#        52126
#        70576
#        86401
#        106951
#        121651
#        143101
#        155926
#        172126
#        191026
#        206251
#        221776
#        240076
#        255076
#
# Disc length: 3585 seconds
#
# Revision: 1
# Processed by: cddbd v1.5.2PL0 Copyright (c) Steve Scherf et al.
# Submitted via: ExactAudioCopy v0.99pb4
#
DISCID=d50dff10
DTITLE=Vari - All-Star Country
DYEAR=2000
DGENRE=Country
TTITLE0=Man I Feel Like A Woman
TTITLE1=How Do You Like Me Now
TTITLE2=Breathe
TTITLE3=Amazed
TTITLE4=Ready To Run
TTITLE5=When You Come Back To Me Again
TTITLE6=Big Deal
TTITLE7=My Best Friend
TTITLE8=I Love You
TTITLE9=Buy Me A Rose
TTITLE10=Cowboy Take Me Away
TTITLE11=Yes
TTITLE12=I Need You
TTITLE13=Chain Of Love
TTITLE14=This Woman Needs
TTITLE15=Pop A Top
EXTD=
EXTT0=
EXTT1=
EXTT2=
EXTT3=
EXTT4=
EXTT5=
EXTT6=
EXTT7=
EXTT8=
EXTT9=
EXTT10=
EXTT11=
EXTT12=
EXTT13=
EXTT14=
EXTT15=
PLAYORDER=
